<mxfile host="app.diagrams.net" modified="2022-03-20T11:16:00.125Z" agent="5.0 (Macintosh; Intel Mac OS X 10_15_7) AppleWebKit/537.36 (KHTML, like Gecko) Chrome/99.0.4844.51 Safari/537.36" etag="72ud4Sz8nuCIBFtmpJhh" version="17.1.2" type="github">
  <diagram id="PUodA693WMOSVE2841Jc" name="第 1 页">
    <mxGraphModel dx="941" dy="673" grid="1" gridSize="10" guides="1" tooltips="1" connect="1" arrows="1" fold="1" page="1" pageScale="1" pageWidth="850" pageHeight="1100" math="0" shadow="0">
      <root>
        <mxCell id="0" />
        <mxCell id="1" parent="0" />
        <mxCell id="u_jYMOBiKWafSDNKGHsM-1" value="新建标签流程" style="swimlane;childLayout=stackLayout;resizeParent=1;resizeParentMax=0;startSize=20;" vertex="1" parent="1">
          <mxGeometry x="100" y="120" width="640" height="560" as="geometry" />
        </mxCell>
        <mxCell id="u_jYMOBiKWafSDNKGHsM-2" value="应用层前端" style="swimlane;startSize=20;" vertex="1" parent="u_jYMOBiKWafSDNKGHsM-1">
          <mxGeometry y="20" width="130" height="540" as="geometry" />
        </mxCell>
        <mxCell id="u_jYMOBiKWafSDNKGHsM-7" value="添加概念词/标签添加请求" style="rounded=1;whiteSpace=wrap;html=1;" vertex="1" parent="u_jYMOBiKWafSDNKGHsM-2">
          <mxGeometry x="25" y="40" width="75" height="30" as="geometry" />
        </mxCell>
        <mxCell id="u_jYMOBiKWafSDNKGHsM-14" value="返货错误信息" style="rounded=1;whiteSpace=wrap;html=1;" vertex="1" parent="u_jYMOBiKWafSDNKGHsM-2">
          <mxGeometry x="25" y="320" width="75" height="30" as="geometry" />
        </mxCell>
        <mxCell id="u_jYMOBiKWafSDNKGHsM-43" value="返回添加成功" style="rounded=1;whiteSpace=wrap;html=1;" vertex="1" parent="u_jYMOBiKWafSDNKGHsM-2">
          <mxGeometry x="25" y="470" width="75" height="30" as="geometry" />
        </mxCell>
        <mxCell id="u_jYMOBiKWafSDNKGHsM-3" value="应用层服务" style="swimlane;startSize=20;" vertex="1" parent="u_jYMOBiKWafSDNKGHsM-1">
          <mxGeometry x="130" y="20" width="150" height="540" as="geometry" />
        </mxCell>
        <mxCell id="u_jYMOBiKWafSDNKGHsM-13" style="edgeStyle=orthogonalEdgeStyle;rounded=0;orthogonalLoop=1;jettySize=auto;html=1;exitX=0.5;exitY=1;exitDx=0;exitDy=0;entryX=0.5;entryY=0;entryDx=0;entryDy=0;" edge="1" parent="u_jYMOBiKWafSDNKGHsM-3" source="u_jYMOBiKWafSDNKGHsM-8" target="u_jYMOBiKWafSDNKGHsM-10">
          <mxGeometry relative="1" as="geometry" />
        </mxCell>
        <mxCell id="u_jYMOBiKWafSDNKGHsM-8" value="解析请求参数" style="rounded=0;whiteSpace=wrap;html=1;" vertex="1" parent="u_jYMOBiKWafSDNKGHsM-3">
          <mxGeometry x="30" y="40" width="80" height="30" as="geometry" />
        </mxCell>
        <mxCell id="u_jYMOBiKWafSDNKGHsM-18" style="edgeStyle=orthogonalEdgeStyle;rounded=0;orthogonalLoop=1;jettySize=auto;html=1;exitX=0.5;exitY=1;exitDx=0;exitDy=0;" edge="1" parent="u_jYMOBiKWafSDNKGHsM-3" source="u_jYMOBiKWafSDNKGHsM-10" target="u_jYMOBiKWafSDNKGHsM-17">
          <mxGeometry relative="1" as="geometry" />
        </mxCell>
        <mxCell id="u_jYMOBiKWafSDNKGHsM-10" value="判断参数合法" style="rhombus;whiteSpace=wrap;html=1;" vertex="1" parent="u_jYMOBiKWafSDNKGHsM-3">
          <mxGeometry x="35" y="90" width="75" height="40" as="geometry" />
        </mxCell>
        <mxCell id="u_jYMOBiKWafSDNKGHsM-17" value="调用标签引擎新增标签" style="rounded=0;whiteSpace=wrap;html=1;" vertex="1" parent="u_jYMOBiKWafSDNKGHsM-3">
          <mxGeometry x="32.5" y="180" width="80" height="30" as="geometry" />
        </mxCell>
        <mxCell id="u_jYMOBiKWafSDNKGHsM-4" value="标签引擎管理模块" style="swimlane;startSize=20;" vertex="1" parent="u_jYMOBiKWafSDNKGHsM-1">
          <mxGeometry x="280" y="20" width="120" height="540" as="geometry" />
        </mxCell>
        <mxCell id="u_jYMOBiKWafSDNKGHsM-28" style="edgeStyle=orthogonalEdgeStyle;rounded=0;orthogonalLoop=1;jettySize=auto;html=1;exitX=0.5;exitY=1;exitDx=0;exitDy=0;entryX=0.5;entryY=0;entryDx=0;entryDy=0;" edge="1" parent="u_jYMOBiKWafSDNKGHsM-4" source="u_jYMOBiKWafSDNKGHsM-22" target="u_jYMOBiKWafSDNKGHsM-27">
          <mxGeometry relative="1" as="geometry" />
        </mxCell>
        <mxCell id="u_jYMOBiKWafSDNKGHsM-22" value="判断是否是组合标签" style="rhombus;whiteSpace=wrap;html=1;" vertex="1" parent="u_jYMOBiKWafSDNKGHsM-4">
          <mxGeometry x="22.5" y="175" width="75" height="40" as="geometry" />
        </mxCell>
        <mxCell id="u_jYMOBiKWafSDNKGHsM-27" value="解析影响的对象表" style="rounded=0;whiteSpace=wrap;html=1;" vertex="1" parent="u_jYMOBiKWafSDNKGHsM-4">
          <mxGeometry x="20" y="240" width="80" height="30" as="geometry" />
        </mxCell>
        <mxCell id="u_jYMOBiKWafSDNKGHsM-5" value="流式计算生成模块" style="swimlane;startSize=20;" vertex="1" parent="u_jYMOBiKWafSDNKGHsM-1">
          <mxGeometry x="400" y="20" width="120" height="540" as="geometry" />
        </mxCell>
        <mxCell id="u_jYMOBiKWafSDNKGHsM-35" style="edgeStyle=orthogonalEdgeStyle;rounded=0;orthogonalLoop=1;jettySize=auto;html=1;exitX=0.5;exitY=1;exitDx=0;exitDy=0;entryX=0.5;entryY=0;entryDx=0;entryDy=0;" edge="1" parent="u_jYMOBiKWafSDNKGHsM-5" source="u_jYMOBiKWafSDNKGHsM-29" target="u_jYMOBiKWafSDNKGHsM-32">
          <mxGeometry relative="1" as="geometry" />
        </mxCell>
        <mxCell id="u_jYMOBiKWafSDNKGHsM-29" value="停止对象表为输入的流式计算任务" style="rounded=0;whiteSpace=wrap;html=1;" vertex="1" parent="u_jYMOBiKWafSDNKGHsM-5">
          <mxGeometry x="20" y="230" width="80" height="50" as="geometry" />
        </mxCell>
        <mxCell id="u_jYMOBiKWafSDNKGHsM-32" value="判断任务退出状态" style="rhombus;whiteSpace=wrap;html=1;" vertex="1" parent="u_jYMOBiKWafSDNKGHsM-5">
          <mxGeometry x="22.5" y="315" width="75" height="40" as="geometry" />
        </mxCell>
        <mxCell id="u_jYMOBiKWafSDNKGHsM-42" style="edgeStyle=orthogonalEdgeStyle;rounded=0;orthogonalLoop=1;jettySize=auto;html=1;exitX=0.5;exitY=1;exitDx=0;exitDy=0;entryX=0.5;entryY=0;entryDx=0;entryDy=0;" edge="1" parent="u_jYMOBiKWafSDNKGHsM-5" source="u_jYMOBiKWafSDNKGHsM-36" target="u_jYMOBiKWafSDNKGHsM-41">
          <mxGeometry relative="1" as="geometry" />
        </mxCell>
        <mxCell id="u_jYMOBiKWafSDNKGHsM-36" value="生成新的计算任务" style="rounded=0;whiteSpace=wrap;html=1;" vertex="1" parent="u_jYMOBiKWafSDNKGHsM-5">
          <mxGeometry x="20" y="385" width="80" height="50" as="geometry" />
        </mxCell>
        <mxCell id="u_jYMOBiKWafSDNKGHsM-41" value="启动新的流式计算任务" style="rounded=0;whiteSpace=wrap;html=1;" vertex="1" parent="u_jYMOBiKWafSDNKGHsM-5">
          <mxGeometry x="17.5" y="460" width="80" height="50" as="geometry" />
        </mxCell>
        <mxCell id="u_jYMOBiKWafSDNKGHsM-12" style="edgeStyle=orthogonalEdgeStyle;rounded=0;orthogonalLoop=1;jettySize=auto;html=1;exitX=1;exitY=0.5;exitDx=0;exitDy=0;" edge="1" parent="u_jYMOBiKWafSDNKGHsM-1" source="u_jYMOBiKWafSDNKGHsM-7" target="u_jYMOBiKWafSDNKGHsM-8">
          <mxGeometry relative="1" as="geometry" />
        </mxCell>
        <mxCell id="u_jYMOBiKWafSDNKGHsM-15" style="edgeStyle=orthogonalEdgeStyle;rounded=0;orthogonalLoop=1;jettySize=auto;html=1;exitX=0;exitY=0.5;exitDx=0;exitDy=0;entryX=0.5;entryY=0;entryDx=0;entryDy=0;" edge="1" parent="u_jYMOBiKWafSDNKGHsM-1" source="u_jYMOBiKWafSDNKGHsM-10" target="u_jYMOBiKWafSDNKGHsM-14">
          <mxGeometry relative="1" as="geometry">
            <Array as="points">
              <mxPoint x="63" y="130" />
              <mxPoint x="63" y="215" />
            </Array>
          </mxGeometry>
        </mxCell>
        <mxCell id="u_jYMOBiKWafSDNKGHsM-16" value="否" style="edgeLabel;html=1;align=center;verticalAlign=middle;resizable=0;points=[];" vertex="1" connectable="0" parent="u_jYMOBiKWafSDNKGHsM-15">
          <mxGeometry x="-0.6537" y="1" relative="1" as="geometry">
            <mxPoint as="offset" />
          </mxGeometry>
        </mxCell>
        <mxCell id="u_jYMOBiKWafSDNKGHsM-19" style="edgeStyle=orthogonalEdgeStyle;rounded=0;orthogonalLoop=1;jettySize=auto;html=1;exitX=1;exitY=0.5;exitDx=0;exitDy=0;entryX=0;entryY=0.5;entryDx=0;entryDy=0;" edge="1" parent="u_jYMOBiKWafSDNKGHsM-1" source="u_jYMOBiKWafSDNKGHsM-17" target="u_jYMOBiKWafSDNKGHsM-22">
          <mxGeometry relative="1" as="geometry">
            <mxPoint x="300" y="215" as="targetPoint" />
          </mxGeometry>
        </mxCell>
        <mxCell id="u_jYMOBiKWafSDNKGHsM-20" value="湖仓一体存储层" style="swimlane;startSize=20;" vertex="1" parent="u_jYMOBiKWafSDNKGHsM-1">
          <mxGeometry x="520" y="20" width="120" height="540" as="geometry" />
        </mxCell>
        <mxCell id="u_jYMOBiKWafSDNKGHsM-24" value="添加组合标签到标签信息表" style="rounded=0;whiteSpace=wrap;html=1;" vertex="1" parent="u_jYMOBiKWafSDNKGHsM-20">
          <mxGeometry x="20" y="180" width="80" height="30" as="geometry" />
        </mxCell>
        <mxCell id="u_jYMOBiKWafSDNKGHsM-37" value="添加标签信息到标签信息表" style="rounded=0;whiteSpace=wrap;html=1;" vertex="1" parent="u_jYMOBiKWafSDNKGHsM-20">
          <mxGeometry x="20" y="320" width="80" height="30" as="geometry" />
        </mxCell>
        <mxCell id="u_jYMOBiKWafSDNKGHsM-25" style="edgeStyle=orthogonalEdgeStyle;rounded=0;orthogonalLoop=1;jettySize=auto;html=1;exitX=1;exitY=0.5;exitDx=0;exitDy=0;entryX=0;entryY=0.5;entryDx=0;entryDy=0;" edge="1" parent="u_jYMOBiKWafSDNKGHsM-1" source="u_jYMOBiKWafSDNKGHsM-22" target="u_jYMOBiKWafSDNKGHsM-24">
          <mxGeometry relative="1" as="geometry" />
        </mxCell>
        <mxCell id="u_jYMOBiKWafSDNKGHsM-26" value="是" style="edgeLabel;html=1;align=center;verticalAlign=middle;resizable=0;points=[];" vertex="1" connectable="0" parent="u_jYMOBiKWafSDNKGHsM-25">
          <mxGeometry x="-0.7846" y="-1" relative="1" as="geometry">
            <mxPoint as="offset" />
          </mxGeometry>
        </mxCell>
        <mxCell id="u_jYMOBiKWafSDNKGHsM-30" style="edgeStyle=orthogonalEdgeStyle;rounded=0;orthogonalLoop=1;jettySize=auto;html=1;exitX=1;exitY=0.5;exitDx=0;exitDy=0;entryX=0;entryY=0.5;entryDx=0;entryDy=0;" edge="1" parent="u_jYMOBiKWafSDNKGHsM-1" source="u_jYMOBiKWafSDNKGHsM-27" target="u_jYMOBiKWafSDNKGHsM-29">
          <mxGeometry relative="1" as="geometry" />
        </mxCell>
        <mxCell id="u_jYMOBiKWafSDNKGHsM-33" style="edgeStyle=orthogonalEdgeStyle;rounded=0;orthogonalLoop=1;jettySize=auto;html=1;exitX=0;exitY=0.5;exitDx=0;exitDy=0;" edge="1" parent="u_jYMOBiKWafSDNKGHsM-1" source="u_jYMOBiKWafSDNKGHsM-32" target="u_jYMOBiKWafSDNKGHsM-14">
          <mxGeometry relative="1" as="geometry" />
        </mxCell>
        <mxCell id="u_jYMOBiKWafSDNKGHsM-34" value="退出失败" style="edgeLabel;html=1;align=center;verticalAlign=middle;resizable=0;points=[];" vertex="1" connectable="0" parent="u_jYMOBiKWafSDNKGHsM-33">
          <mxGeometry x="-0.5938" y="-3" relative="1" as="geometry">
            <mxPoint as="offset" />
          </mxGeometry>
        </mxCell>
        <mxCell id="u_jYMOBiKWafSDNKGHsM-38" style="edgeStyle=orthogonalEdgeStyle;rounded=0;orthogonalLoop=1;jettySize=auto;html=1;exitX=1;exitY=0.5;exitDx=0;exitDy=0;" edge="1" parent="u_jYMOBiKWafSDNKGHsM-1" source="u_jYMOBiKWafSDNKGHsM-32" target="u_jYMOBiKWafSDNKGHsM-37">
          <mxGeometry relative="1" as="geometry" />
        </mxCell>
        <mxCell id="u_jYMOBiKWafSDNKGHsM-39" style="edgeStyle=orthogonalEdgeStyle;rounded=0;orthogonalLoop=1;jettySize=auto;html=1;exitX=0.5;exitY=1;exitDx=0;exitDy=0;entryX=1;entryY=0.5;entryDx=0;entryDy=0;" edge="1" parent="u_jYMOBiKWafSDNKGHsM-1" source="u_jYMOBiKWafSDNKGHsM-37" target="u_jYMOBiKWafSDNKGHsM-36">
          <mxGeometry relative="1" as="geometry" />
        </mxCell>
        <mxCell id="u_jYMOBiKWafSDNKGHsM-44" style="edgeStyle=orthogonalEdgeStyle;rounded=0;orthogonalLoop=1;jettySize=auto;html=1;exitX=0;exitY=0.5;exitDx=0;exitDy=0;" edge="1" parent="u_jYMOBiKWafSDNKGHsM-1" source="u_jYMOBiKWafSDNKGHsM-41" target="u_jYMOBiKWafSDNKGHsM-43">
          <mxGeometry relative="1" as="geometry" />
        </mxCell>
      </root>
    </mxGraphModel>
  </diagram>
</mxfile>
